<svg width="500" height="479" viewBox="0 0 500 479" fill="none" xmlns="http://www.w3.org/2000/svg">
<g filter="url(#filter0_b_106_2)">
<g filter="url(#filter1_b_106_2)">
<path d="M387 106.547C387 106.547 344.31 60.1366 276.72 62.3567C209.13 64.5767 151.49 109.525 103.82 144.708C56.15 179.892 43.3499 234.562 71.0999 277.227C98.8499 319.891 142.96 301.931 199.16 329.624C255.36 357.316 266 373.046 328.65 366.312C391.3 359.578 438.94 290.705 431.82 217.338C424.7 143.972 387 106.547 387 106.547Z" fill="#92E3A9" fill-opacity="0.12"/>
</g>
<path d="M403.36 405.071C403.36 408.19 337.36 410.704 256.03 410.704C174.7 410.704 108.69 408.19 108.69 405.071C108.69 401.952 174.69 399.449 256.03 399.449C337.37 399.449 403.36 401.963 403.36 405.071Z" fill="#92E3A9" fill-opacity="0.22"/>
<path d="M116.67 229.489C116.73 229.489 115.98 225.533 115.9 225.246C115.04 222.425 111.81 217.502 108.67 217.502C108.149 217.52 107.638 217.653 107.168 217.893C106.699 218.134 106.283 218.476 105.946 218.898C105.609 219.32 105.36 219.812 105.214 220.343C105.069 220.874 105.03 221.431 105.1 221.979C105.33 224.313 107.31 226.307 109.1 227.453C111.2 228.842 116.67 229.489 116.67 229.489Z" fill="#27B74E"/>
<path d="M122.74 202.842C119.79 203.967 118.33 209.759 118.42 212.729C118.42 212.983 118.98 216.972 119.04 216.972H119.1C118.86 217.884 118.61 218.86 118.36 219.942C117.92 221.937 117.44 224.185 117.07 226.689C116.641 229.371 116.361 232.077 116.23 234.793C116.076 237.837 116.173 240.89 116.52 243.916C116.524 243.951 116.524 243.987 116.52 244.022C116.14 243.142 114.98 240.713 114.87 240.532C113.33 238.05 108.99 234.167 105.96 235.09C105.463 235.253 105.005 235.524 104.613 235.886C104.222 236.249 103.906 236.695 103.688 237.195C103.469 237.695 103.352 238.238 103.343 238.789C103.335 239.34 103.436 239.887 103.64 240.394C104.44 242.59 106.84 243.948 108.85 244.563C111.12 245.242 116.18 244.436 116.58 244.372C117.014 247.439 117.635 250.472 118.44 253.453C118.91 255.192 119.44 256.932 119.96 258.661C119.61 257.908 119.28 257.24 119.23 257.155C117.69 254.672 113.35 250.79 110.32 251.713C109.823 251.875 109.365 252.147 108.973 252.509C108.582 252.872 108.266 253.317 108.048 253.817C107.829 254.317 107.712 254.861 107.703 255.412C107.695 255.963 107.796 256.51 108 257.017C108.8 259.202 111.2 260.57 113.21 261.175C115.22 261.78 119.58 261.175 120.72 261.027C120.93 261.684 121.14 262.353 121.36 263.01C122.36 266.193 123.44 269.375 124.36 272.494C124.69 273.555 124.97 274.7 125.26 275.803C124.95 275.135 124.67 274.573 124.62 274.499C123.09 272.006 118.74 268.134 115.72 269.057C115.223 269.218 114.763 269.488 114.37 269.85C113.977 270.213 113.661 270.658 113.441 271.158C113.222 271.658 113.104 272.202 113.095 272.754C113.086 273.305 113.186 273.853 113.39 274.361C114.19 276.546 116.6 277.914 118.61 278.519C120.62 279.124 124.55 278.593 125.91 278.392C126.18 279.527 126.45 280.672 126.66 281.786C126.78 282.55 126.95 283.271 127.04 284.056L127.34 286.326C127.48 287.78 127.64 289.275 127.74 290.697C127.82 291.694 127.88 292.638 127.94 293.582C127.63 292.521 126.94 290.326 126.94 290.156C125.833 287.822 124.18 285.828 122.14 284.364C122.026 284.098 121.893 283.843 121.74 283.6C121.455 283.138 121.081 282.744 120.644 282.444C120.206 282.145 119.714 281.946 119.199 281.861C118.684 281.776 118.159 281.807 117.656 281.951C117.153 282.095 116.684 282.35 116.28 282.699C113.91 284.873 114.5 290.835 115.59 293.572C115.65 293.731 116.59 295.407 117.11 296.446L115.84 294.77C114.96 293.635 114.06 292.532 113.1 291.344C112.607 290.792 112.117 290.23 111.63 289.657C111.15 289.085 110.58 288.544 110.05 287.971C108.79 286.687 107.46 285.446 106.05 284.237C106.99 283.42 110.26 280.492 111.2 278.498C112.14 276.504 112.81 273.714 111.83 271.603C111.615 271.101 111.302 270.652 110.913 270.286C110.523 269.92 110.066 269.646 109.57 269.48C109.074 269.314 108.55 269.26 108.034 269.322C107.517 269.385 107.018 269.562 106.57 269.842C103.91 271.603 103.64 277.596 104.33 280.45C104.33 280.63 105.09 282.646 105.5 283.738C104.67 283.006 103.85 282.285 102.99 281.617C100.51 279.59 97.9901 277.617 95.3901 275.634L93.06 273.799C93.39 273.512 97.3501 270.118 98.4101 267.879C99.3501 265.896 100.02 263.095 99.0401 260.995C98.8257 260.49 98.5135 260.039 98.1238 259.671C97.7341 259.303 97.2756 259.027 96.7782 258.86C96.2809 258.693 95.7559 258.639 95.2376 258.701C94.7193 258.764 94.2192 258.942 93.77 259.223C91.12 260.995 90.8501 266.978 91.5401 269.831C91.5901 270.043 92.62 272.929 92.92 273.65C91.21 272.303 89.52 270.945 87.92 269.534C85.7317 267.633 83.6607 265.585 81.7201 263.403C81.8701 263.275 86.02 259.743 87.1 257.462C88.04 255.479 88.7101 252.678 87.7301 250.567C87.5135 250.067 87.2007 249.621 86.8116 249.258C86.4226 248.894 85.966 248.621 85.4713 248.456C84.9766 248.291 84.4548 248.238 83.9396 248.3C83.4244 248.362 82.9272 248.538 82.4801 248.817C79.8201 250.588 79.56 256.582 80.24 259.425C80.29 259.616 81.0701 261.822 81.4701 262.851L81.3201 262.957C79.4204 260.704 77.7136 258.276 76.2201 255.701C75.3901 254.301 74.6601 252.901 73.9801 251.533C74.8201 250.96 78.6101 248.35 79.8001 246.356C80.9901 244.362 81.9001 241.784 81.1401 239.577C80.9774 239.059 80.7147 238.582 80.3689 238.178C80.023 237.773 79.6015 237.449 79.1312 237.226C78.6609 237.004 78.152 236.888 77.6371 236.885C77.1221 236.883 76.6123 236.994 76.14 237.212C73.3201 238.655 72.4301 244.637 72.8201 247.523C72.8201 247.682 73.22 249.284 73.52 250.44C73.22 249.825 72.9 249.178 72.63 248.573C71.63 246.313 70.7801 244.171 70.0801 242.272C69.6901 241.211 69.3501 240.15 69.0801 239.259C69.6201 238.251 71.7701 234.125 71.9701 231.834C72.1701 229.542 71.8501 226.753 70.2201 225.161C69.848 224.774 69.4033 224.473 68.9148 224.28C68.4263 224.086 67.9049 224.004 67.3843 224.038C66.8638 224.072 66.3559 224.221 65.8934 224.477C65.431 224.733 65.0244 225.089 64.7 225.522C62.83 228.185 64.62 233.881 66.24 236.3C66.38 236.512 68.92 239.482 68.95 239.482V239.418C69.23 240.32 69.5301 241.275 69.8901 242.325C70.5601 244.245 71.3301 246.409 72.3201 248.69C73.3588 251.179 74.5342 253.602 75.84 255.945C77.2962 258.573 78.9695 261.058 80.84 263.371L80.9101 263.445C80.1301 262.936 77.9101 261.589 77.7201 261.504C75.1501 260.326 69.52 259.669 67.46 262.172C67.129 262.599 66.8863 263.095 66.7479 263.628C66.6095 264.161 66.5784 264.718 66.6567 265.265C66.735 265.811 66.921 266.334 67.2024 266.799C67.4838 267.264 67.8544 267.661 68.2901 267.964C70.0901 269.322 72.8101 269.025 74.8001 268.389C77.0501 267.635 80.8001 263.997 81.1501 263.71C83.1061 266.016 85.204 268.181 87.4301 270.192C88.7201 271.369 90.0501 272.515 91.4301 273.65C90.7401 273.236 90.1201 272.865 90.0301 272.823C87.4601 271.645 81.84 270.987 79.78 273.491C79.447 273.916 79.2024 274.412 79.0623 274.944C78.9223 275.477 78.8899 276.035 78.9673 276.582C79.0447 277.129 79.2302 277.652 79.5116 278.117C79.7929 278.583 80.1639 278.98 80.6 279.283C82.41 280.641 85.1201 280.344 87.1201 279.707C89.1201 279.071 92.4301 275.994 93.3001 275.178L94.8601 276.472C97.3801 278.519 99.86 280.545 102.31 282.614C103.16 283.346 103.97 284.088 104.79 284.841C104.18 284.47 103.66 284.162 103.57 284.12C101 282.953 95.3801 282.285 93.3201 284.799C92.987 285.224 92.7424 285.72 92.6023 286.252C92.4623 286.785 92.4299 287.343 92.5073 287.89C92.5847 288.437 92.7702 288.96 93.0516 289.425C93.333 289.891 93.7039 290.288 94.1401 290.591C95.9501 291.949 98.6601 291.652 100.66 291.005C102.66 290.357 105.66 287.589 106.66 286.634C107.47 287.419 108.29 288.215 109.05 289.021C109.55 289.583 110.05 290.082 110.55 290.686L111.98 292.415C112.86 293.54 113.76 294.696 114.59 295.821C115.17 296.606 115.71 297.359 116.26 298.112C115.42 297.38 113.75 295.99 113.59 295.874C111.22 294.293 105.76 292.744 103.36 294.887C102.973 295.256 102.663 295.708 102.451 296.212C102.239 296.716 102.129 297.263 102.129 297.815C102.129 298.367 102.239 298.913 102.451 299.418C102.663 299.922 102.973 300.374 103.36 300.743C104.95 302.376 107.67 302.546 109.74 302.206C112.01 301.835 116.13 299.024 116.64 298.632C117.54 299.883 118.4 301.114 119.2 302.281C121.97 306.344 124.13 309.844 125.61 312.305L125.76 312.56L127.68 311.573L127.38 311.085C125.83 308.635 123.58 305.155 120.69 301.114C119.79 299.83 118.79 298.494 117.76 297.115C118.83 295.876 119.832 294.572 120.76 293.211C122.96 294.123 127.55 294.155 128.14 294.155C128.24 295.736 128.32 297.263 128.37 298.706C128.57 303.723 128.55 307.903 128.51 310.82C128.51 310.937 128.51 311.043 128.51 311.16L130.62 310.099C130.62 307.192 130.51 303.267 130.24 298.621C130.14 297.03 130.01 295.322 129.87 293.572C130.45 293.423 135.22 292.118 137.02 290.591C138.66 289.212 140.38 286.963 140.32 284.619C140.324 284.066 140.218 283.519 140.01 283.013C139.801 282.506 139.495 282.052 139.11 281.68C138.725 281.308 138.27 281.026 137.776 280.852C137.282 280.679 136.758 280.617 136.24 280.672C133.12 281.097 130.52 286.411 130.01 289.339C130.01 289.509 129.84 291.461 129.78 292.617C129.72 291.906 129.66 291.217 129.59 290.495C129.45 289.042 129.27 287.599 129.09 286.04C128.97 285.297 128.85 284.534 128.74 283.77C128.63 283.006 128.44 282.221 128.29 281.447C127.91 279.633 127.45 277.819 126.94 276.005C128.14 275.878 132.4 275.347 134.22 274.233C136.04 273.12 138.05 271.189 138.33 268.855C138.412 268.31 138.385 267.753 138.251 267.22C138.117 266.686 137.878 266.189 137.551 265.76C137.224 265.33 136.815 264.979 136.351 264.728C135.888 264.478 135.38 264.333 134.86 264.304C131.72 264.22 128.38 269.057 127.46 271.868C127.4 272.038 126.95 274.127 126.73 275.284C126.41 274.223 126.11 273.109 125.73 272.016C124.73 268.834 123.6 265.726 122.5 262.575L121.5 259.679C121.93 259.679 127 259.128 129.04 257.876C130.85 256.815 132.87 254.832 133.15 252.498C133.234 251.953 133.208 251.395 133.074 250.861C132.941 250.327 132.702 249.828 132.375 249.399C132.047 248.969 131.638 248.618 131.174 248.368C130.709 248.118 130.2 247.974 129.68 247.947C126.54 247.862 123.2 252.71 122.28 255.511C122.21 255.723 121.57 258.693 121.44 259.51C120.72 257.388 120.02 255.267 119.44 253.145C118.605 250.278 117.937 247.358 117.44 244.404C117.64 244.404 122.94 243.874 125.03 242.601C126.84 241.487 128.86 239.546 129.14 237.212C129.222 236.666 129.195 236.108 129.06 235.574C128.925 235.04 128.686 234.542 128.358 234.113C128.029 233.683 127.619 233.332 127.155 233.082C126.69 232.832 126.181 232.688 125.66 232.661C122.53 232.576 119.19 237.424 118.27 240.225C118.21 240.405 117.72 242.707 117.51 243.799H117.33C116.917 240.811 116.756 237.79 116.85 234.772C116.85 233.117 117 231.526 117.15 229.988C118.15 229.988 122.7 229.988 124.7 229.076C126.7 228.163 128.82 226.487 129.34 224.207C129.479 223.672 129.51 223.113 129.43 222.565C129.351 222.018 129.164 221.494 128.881 221.028C128.598 220.562 128.225 220.165 127.787 219.863C127.349 219.561 126.856 219.36 126.34 219.274C123.23 218.828 119.41 223.252 118.21 225.925C118.14 226.074 117.63 227.633 117.27 228.779C117.34 228.078 117.41 227.368 117.5 226.657C117.82 224.164 118.25 221.905 118.65 219.9C118.89 218.765 119.12 217.778 119.35 216.792C120.35 216.261 124.27 214.087 125.62 212.315C126.97 210.544 128.15 208.008 127.62 205.728C127.51 205.179 127.29 204.661 126.976 204.209C126.662 203.758 126.26 203.383 125.798 203.11C125.335 202.836 124.823 202.671 124.296 202.625C123.769 202.579 123.238 202.653 122.74 202.842Z" fill="#27B74E"/>
<path d="M66.0601 254.121C68.5101 254.015 73.4101 251.342 73.4201 251.342C73.4301 251.342 70.7801 248.456 70.5901 248.287C68.4001 246.441 63.1401 244.224 60.5301 246.069C60.1047 246.388 59.7472 246.797 59.4808 247.271C59.2144 247.746 59.045 248.274 58.9837 248.822C58.9224 249.371 58.9705 249.926 59.125 250.454C59.2794 250.981 59.5367 251.468 59.8801 251.883C61.2901 253.697 64.0001 254.206 66.0601 254.121Z" fill="#27B74E"/>
<path d="M94.67 319.2C94.67 319.2 109.54 281.182 117.86 282.836C126.18 284.491 103.59 343.45 103.59 343.45C103.59 343.45 129.75 291.1 147.59 291.1C165.43 291.1 141.05 348.955 118.46 368.241C118.46 368.241 154.13 327.464 174.95 336.29C195.77 345.115 133.32 386.433 133.32 386.433C133.32 386.433 169.59 374.308 165.43 383.675C161.27 393.042 150 394.697 150 394.697L191 396.903H48.29L80.4 393.593C80.4 393.593 47.1 375.963 56 368.792C64.9 361.621 84.54 377.056 84.54 377.056C84.54 377.056 50.65 337.382 57.19 322.51C63.73 307.638 92.87 349.507 92.87 349.507C92.87 349.507 69.08 296.064 73.87 286.687C78.66 277.31 94.67 319.2 94.67 319.2Z" fill="#27B74E"/>
<path d="M89.92 321.205C103 362.205 103 391.217 103 391.217C103 391.217 87.54 391.854 71.48 379.241" stroke="#263238" stroke-linecap="round" stroke-linejoin="round"/>
<path d="M96.4601 343.28C99.1522 331.023 102.729 319.005 107.16 307.33" stroke="#263238" stroke-linecap="round" stroke-linejoin="round"/>
<path d="M135.11 319.317L101.81 371.667C101.81 371.667 79.21 351.512 71.48 340.13" stroke="#263238" stroke-linecap="round" stroke-linejoin="round"/>
<path d="M102.4 384.28C102.4 384.28 137.48 366.618 151.76 356.53" stroke="#263238" stroke-linecap="round" stroke-linejoin="round"/>
<path d="M394.62 229.489C394.56 229.489 395.32 225.533 395.39 225.246C396.25 222.425 399.49 217.502 402.62 217.502C403.141 217.52 403.653 217.653 404.122 217.893C404.591 218.134 405.008 218.476 405.344 218.898C405.681 219.32 405.93 219.812 406.076 220.343C406.221 220.874 406.26 221.431 406.19 221.979C405.96 224.313 403.98 226.307 402.19 227.453C400.09 228.842 394.62 229.489 394.62 229.489Z" fill="#27B74E"/>
<path d="M388.55 202.842C391.5 203.967 392.97 209.759 392.87 212.729C392.87 212.984 392.31 216.972 392.26 216.972H392.2C392.43 217.884 392.68 218.86 392.93 219.942C393.37 221.937 393.85 224.186 394.22 226.689C394.649 229.371 394.929 232.077 395.06 234.793C395.219 237.837 395.122 240.891 394.77 243.916C394.766 243.951 394.766 243.987 394.77 244.022C395.16 243.142 396.32 240.713 396.42 240.532C397.96 238.05 402.3 234.168 405.33 235.09C405.827 235.251 406.287 235.522 406.68 235.884C407.072 236.246 407.388 236.692 407.607 237.193C407.826 237.693 407.943 238.237 407.95 238.789C407.958 239.34 407.855 239.887 407.65 240.394C406.85 242.59 404.45 243.948 402.44 244.563C400.17 245.242 395.11 244.436 394.71 244.372C394.281 247.44 393.66 250.473 392.85 253.453C392.383 255.192 391.877 256.929 391.33 258.661C391.68 257.908 392.01 257.24 392.06 257.155C393.6 254.673 397.95 250.79 400.97 251.713C401.468 251.874 401.927 252.144 402.32 252.507C402.712 252.869 403.028 253.315 403.247 253.815C403.466 254.316 403.583 254.86 403.59 255.411C403.598 255.963 403.495 256.51 403.29 257.017C402.49 259.202 400.09 260.571 398.08 261.175C396.07 261.78 391.71 261.175 390.57 261.027L389.94 263.01C388.94 266.193 387.85 269.375 386.94 272.494C386.61 273.555 386.32 274.7 386.03 275.804C386.35 275.135 386.62 274.573 386.67 274.499C388.21 272.006 392.55 268.134 395.57 269.057C396.067 269.218 396.527 269.489 396.92 269.851C397.313 270.213 397.629 270.658 397.849 271.158C398.068 271.659 398.187 272.202 398.195 272.754C398.204 273.306 398.104 273.853 397.9 274.361C397.1 276.546 394.69 277.915 392.68 278.519C390.67 279.124 386.74 278.593 385.38 278.392C385.11 279.527 384.85 280.673 384.64 281.786C384.51 282.55 384.34 283.272 384.25 284.057L383.95 286.327C383.81 287.78 383.65 289.276 383.55 290.697C383.47 291.694 383.41 292.638 383.35 293.582C383.67 292.522 384.35 290.326 384.4 290.156C385.51 287.824 387.162 285.831 389.2 284.364C389.313 284.096 389.45 283.84 389.61 283.6C389.893 283.137 390.265 282.742 390.702 282.442C391.139 282.141 391.631 281.942 392.145 281.857C392.659 281.772 393.185 281.803 393.687 281.948C394.189 282.093 394.657 282.349 395.06 282.699C397.44 284.873 396.84 290.835 395.75 293.572C395.69 293.731 394.8 295.407 394.23 296.447C394.66 295.884 395.06 295.386 395.51 294.77C396.38 293.635 397.28 292.532 398.24 291.344L399.71 289.657C400.19 289.085 400.77 288.544 401.3 287.971C402.55 286.687 403.88 285.446 405.25 284.237C404.32 283.42 401.04 280.492 400.1 278.498C399.16 276.504 398.49 273.714 399.47 271.603C399.685 271.099 399.998 270.649 400.388 270.282C400.778 269.916 401.237 269.64 401.734 269.474C402.232 269.308 402.756 269.255 403.274 269.318C403.792 269.382 404.291 269.56 404.74 269.842C407.39 271.603 407.66 277.596 406.97 280.45C406.97 280.63 406.21 282.646 405.8 283.738C406.63 283.006 407.45 282.285 408.31 281.617C410.79 279.591 413.36 277.618 415.91 275.634L418.24 273.799C417.91 273.512 413.95 270.118 412.89 267.879C411.96 265.896 411.28 263.095 412.26 260.995C412.474 260.49 412.787 260.039 413.176 259.672C413.566 259.304 414.024 259.027 414.522 258.86C415.019 258.693 415.544 258.639 416.062 258.701C416.581 258.764 417.081 258.942 417.53 259.223C420.19 260.995 420.45 266.978 419.76 269.831C419.71 270.043 418.68 272.929 418.39 273.65C420.09 272.303 421.78 270.945 423.39 269.534C425.578 267.634 427.649 265.586 429.59 263.403C429.44 263.276 425.29 259.743 424.21 257.462C423.27 255.479 422.6 252.678 423.58 250.567C423.794 250.064 424.106 249.615 424.495 249.248C424.884 248.881 425.342 248.605 425.838 248.438C426.334 248.271 426.858 248.216 427.375 248.278C427.892 248.34 428.391 248.516 428.84 248.796C431.5 250.567 431.77 256.561 431.08 259.404C431.03 259.595 430.25 261.801 429.86 262.83C429.906 262.871 429.956 262.907 430.01 262.936C431.907 260.683 433.61 258.255 435.1 255.68C435.94 254.28 436.66 252.88 437.34 251.511C436.5 250.939 432.71 248.329 431.52 246.335C430.33 244.341 429.43 241.763 430.18 239.556C430.342 239.031 430.606 238.548 430.955 238.139C431.305 237.729 431.731 237.402 432.208 237.179C432.684 236.956 433.199 236.842 433.72 236.844C434.241 236.846 434.755 236.964 435.23 237.191C438.06 238.633 438.94 244.616 438.55 247.502C438.55 247.661 438.15 249.263 437.86 250.419C438.15 249.804 438.47 249.157 438.74 248.552C439.74 246.292 440.59 244.15 441.29 242.251C441.69 241.19 442.02 240.129 442.29 239.238C441.74 238.23 439.6 234.104 439.39 231.813C439.18 229.521 439.52 226.731 441.15 225.14C441.521 224.753 441.965 224.453 442.453 224.259C442.94 224.066 443.461 223.983 443.981 224.017C444.501 224.051 445.008 224.201 445.469 224.457C445.931 224.712 446.337 225.068 446.66 225.501C448.54 228.163 446.75 233.86 445.13 236.279C444.99 236.491 442.44 239.461 442.41 239.461V239.397C442.13 240.299 441.83 241.254 441.47 242.304C440.81 244.224 440.04 246.388 439.05 248.669C438.004 251.156 436.825 253.578 435.52 255.924C434.064 258.552 432.391 261.037 430.52 263.35L430.45 263.424C431.23 262.915 433.45 261.568 433.64 261.483C436.22 260.305 441.84 259.648 443.9 262.151C444.232 262.577 444.475 263.073 444.614 263.605C444.753 264.137 444.785 264.695 444.708 265.241C444.63 265.788 444.446 266.31 444.165 266.776C443.885 267.241 443.515 267.639 443.08 267.943C441.27 269.301 438.56 269.004 436.56 268.367C434.31 267.614 430.56 263.976 430.22 263.689C428.264 265.995 426.166 268.16 423.94 270.171C422.65 271.348 421.31 272.494 419.94 273.629C420.63 273.215 421.25 272.844 421.34 272.802C423.91 271.624 429.53 270.966 431.59 273.47C431.923 273.895 432.168 274.39 432.308 274.923C432.448 275.456 432.48 276.014 432.403 276.561C432.325 277.107 432.14 277.631 431.858 278.096C431.577 278.562 431.206 278.959 430.77 279.262C428.97 280.62 426.25 280.323 424.26 279.686C422.27 279.05 418.94 275.973 418.08 275.156C417.55 275.591 417.08 276.026 416.51 276.451C414 278.498 411.51 280.524 409.06 282.593C408.21 283.325 407.4 284.067 406.58 284.82L407.8 284.099C410.37 282.932 415.99 282.264 418.05 284.778C418.383 285.203 418.628 285.698 418.768 286.231C418.908 286.764 418.94 287.322 418.863 287.869C418.785 288.415 418.6 288.939 418.318 289.404C418.037 289.87 417.666 290.267 417.23 290.57C415.42 291.928 412.71 291.631 410.72 290.983C408.73 290.336 405.72 287.568 404.72 286.613C403.91 287.398 403.09 288.194 402.34 289C401.83 289.562 401.34 290.061 400.84 290.665L399.4 292.394C398.53 293.519 397.62 294.675 396.79 295.799C396.21 296.584 395.67 297.338 395.13 298.091C395.96 297.359 397.64 295.969 397.79 295.852C400.16 294.272 405.63 292.723 408.02 294.866C408.407 295.235 408.717 295.686 408.929 296.191C409.141 296.695 409.251 297.241 409.251 297.794C409.251 298.346 409.141 298.892 408.929 299.397C408.717 299.901 408.407 300.352 408.02 300.722C406.42 302.355 403.7 302.525 401.64 302.185C399.36 301.814 395.24 299.003 394.73 298.611C393.83 299.862 392.97 301.093 392.17 302.26C389.4 306.322 387.24 309.823 385.76 312.284C385.76 312.38 385.66 312.454 385.61 312.539L383.69 311.552L383.99 311.064C385.54 308.614 387.8 305.134 390.68 301.093C391.59 299.809 392.58 298.473 393.61 297.094C392.538 295.857 391.536 294.553 390.61 293.19C388.4 294.102 383.82 294.134 383.22 294.134C383.13 295.715 383.05 297.242 382.99 298.685C382.79 303.702 382.81 307.882 382.86 310.799V311.138L380.75 310.078C380.75 307.171 380.86 303.246 381.14 298.6C381.23 297.009 381.36 295.301 381.51 293.551C380.92 293.402 376.15 292.097 374.35 290.57C372.72 289.191 371 286.942 371.06 284.598C371.054 284.045 371.159 283.497 371.367 282.99C371.575 282.482 371.882 282.028 372.267 281.655C372.652 281.283 373.107 281.001 373.602 280.828C374.097 280.655 374.621 280.595 375.14 280.651C378.25 281.076 380.86 286.39 381.37 289.318C381.37 289.488 381.53 291.44 381.59 292.596C381.66 291.885 381.71 291.196 381.79 290.474C381.92 289.021 382.1 287.578 382.29 286.019C382.4 285.276 382.52 284.513 382.63 283.749C382.74 282.985 382.93 282.2 383.08 281.426C383.46 279.612 383.92 277.798 384.43 275.984C383.23 275.857 378.98 275.326 377.15 274.212C375.32 273.099 373.32 271.168 373.05 268.834C372.966 268.289 372.992 267.731 373.126 267.197C373.259 266.663 373.498 266.165 373.825 265.735C374.153 265.306 374.562 264.954 375.026 264.704C375.491 264.454 376 264.311 376.52 264.283C379.65 264.199 382.99 269.036 383.91 271.847C383.97 272.017 384.42 274.106 384.64 275.263C384.96 274.202 385.26 273.088 385.64 271.995C386.64 268.813 387.77 265.705 388.87 262.554C389.21 261.589 389.53 260.624 389.87 259.658C389.44 259.658 384.37 259.107 382.33 257.855C380.52 256.794 378.5 254.811 378.22 252.477C378.138 251.932 378.165 251.374 378.299 250.841C378.433 250.308 378.672 249.81 378.999 249.381C379.326 248.952 379.735 248.601 380.199 248.35C380.662 248.099 381.17 247.955 381.69 247.926C384.83 247.841 388.17 252.689 389.09 255.489C389.16 255.702 389.8 258.672 389.93 259.489C390.65 257.367 391.36 255.245 391.93 253.124C392.775 250.259 393.443 247.34 393.93 244.383C393.73 244.383 388.44 243.853 386.35 242.58C384.53 241.466 382.51 239.525 382.24 237.191C382.156 236.645 382.182 236.088 382.316 235.554C382.449 235.02 382.688 234.521 383.015 234.092C383.343 233.662 383.752 233.311 384.216 233.061C384.681 232.811 385.19 232.667 385.71 232.64C388.84 232.555 392.18 237.403 393.1 240.203C393.16 240.384 393.66 242.686 393.87 243.778H394.04C394.453 240.79 394.614 237.769 394.52 234.751C394.52 233.096 394.37 231.505 394.22 229.967C393.22 229.967 388.68 229.967 386.68 229.055C384.68 228.142 382.55 226.466 382.03 224.186C381.891 223.651 381.861 223.092 381.94 222.544C382.019 221.996 382.206 221.473 382.489 221.007C382.773 220.541 383.145 220.144 383.583 219.842C384.021 219.54 384.514 219.339 385.03 219.253C388.14 218.807 391.96 223.231 393.17 225.904C393.23 226.053 393.75 227.612 394.1 228.758C394.03 228.057 393.96 227.347 393.87 226.636C393.56 224.143 393.12 221.884 392.72 219.879C392.48 218.744 392.25 217.757 392.02 216.771C391.02 216.24 387.1 214.066 385.76 212.294C384.42 210.523 383.22 207.987 383.76 205.707C383.875 205.171 384.093 204.666 384.403 204.226C384.712 203.785 385.105 203.418 385.556 203.148C386.008 202.878 386.507 202.712 387.023 202.659C387.538 202.606 388.059 202.669 388.55 202.842Z" fill="#27B74E"/>
<path d="M445.23 254.121C442.78 254.015 437.88 251.342 437.88 251.342C437.88 251.342 440.51 248.456 440.7 248.287C442.89 246.441 448.15 244.224 450.76 246.069C451.187 246.387 451.545 246.796 451.813 247.27C452.08 247.744 452.25 248.273 452.311 248.822C452.373 249.37 452.324 249.927 452.169 250.454C452.013 250.982 451.755 251.468 451.41 251.883C450 253.697 447.32 254.206 445.23 254.121Z" fill="#27B74E"/>
<path d="M416.62 319.2C416.62 319.2 401.75 281.182 393.43 282.836C385.11 284.491 407.7 343.45 407.7 343.45C407.7 343.45 381.54 291.1 363.7 291.1C345.86 291.1 370.24 348.955 392.84 368.241C392.84 368.241 357.16 327.464 336.35 336.29C315.54 345.115 378 386.433 378 386.433C378 386.433 341.73 374.308 345.89 383.675C350.05 393.042 361.35 394.697 361.35 394.697L320.35 396.903H463L430.89 393.593C430.89 393.593 464.19 375.963 455.27 368.792C446.35 361.621 426.73 377.056 426.73 377.056C426.73 377.056 460.62 337.382 454.08 322.51C447.54 307.638 418.4 349.507 418.4 349.507C418.4 349.507 442.19 296.064 437.4 286.687C432.61 277.31 416.62 319.2 416.62 319.2Z" fill="#27B74E"/>
<path d="M421.38 321.205C408.3 362.205 408.3 391.217 408.3 391.217C408.3 391.217 423.76 391.854 439.81 379.241" stroke="#263238" stroke-linecap="round" stroke-linejoin="round"/>
<path d="M414.84 343.28C412.141 331.024 408.561 319.006 404.13 307.33" stroke="#263238" stroke-linecap="round" stroke-linejoin="round"/>
<path d="M376.19 319.317L409.48 371.667C409.48 371.667 432.08 351.512 439.81 340.13" stroke="#263238" stroke-linecap="round" stroke-linejoin="round"/>
<path d="M408.89 384.28C408.89 384.28 373.81 366.618 359.54 356.53" stroke="#263238" stroke-linecap="round" stroke-linejoin="round"/>
<g filter="url(#filter2_b_106_2)">
<path d="M186.7 118.898L178.53 105.065H106.57V118.898V123.873V354.001H402.77V118.898H186.7Z" fill="#263238"/>
<mask id="mask0_106_2" style="mask-type:luminance" maskUnits="userSpaceOnUse" x="108" y="125" width="293" height="224">
<path d="M400.82 125.242H108.77V348.983H400.82V125.242Z" fill="white"/>
</mask>
<g mask="url(#mask0_106_2)">
<path opacity="0.17" d="M402.25 123.322H395.47V350.681H402.25V123.322Z" fill="black"/>
<path opacity="0.17" d="M402.25 260.789H395.47V348.835H402.25V260.789Z" fill="black"/>
<path d="M401.2 122.218H107.61V134.386H401.2V122.218Z" fill="#27B74E" fill-opacity="0.46" stroke="#263238" stroke-miterlimit="10"/>
</g>
<path d="M400.82 125.242H108.77V348.983H400.82V125.242Z" stroke="#263238" stroke-linecap="round" stroke-linejoin="round"/>
<g opacity="0.17">
<path d="M260.93 146.118H240.5C240.264 146.118 240.03 146.069 239.811 145.973C239.593 145.877 239.394 145.736 239.227 145.559C239.06 145.381 238.927 145.171 238.837 144.939C238.747 144.708 238.7 144.459 238.7 144.208C238.699 143.957 238.744 143.707 238.834 143.475C238.924 143.242 239.056 143.03 239.224 142.851C239.391 142.673 239.59 142.531 239.809 142.435C240.028 142.338 240.263 142.288 240.5 142.288H260.93C261.167 142.288 261.402 142.338 261.621 142.435C261.84 142.531 262.039 142.673 262.206 142.851C262.374 143.03 262.506 143.242 262.596 143.475C262.686 143.707 262.731 143.957 262.73 144.208C262.73 144.459 262.683 144.708 262.593 144.939C262.503 145.171 262.37 145.381 262.203 145.559C262.036 145.736 261.837 145.877 261.619 145.973C261.4 146.069 261.166 146.118 260.93 146.118Z" fill="black"/>
<path d="M301.79 146.118H281.36C280.883 146.115 280.427 145.913 280.09 145.556C279.753 145.198 279.563 144.714 279.56 144.208C279.56 143.701 279.749 143.214 280.087 142.855C280.424 142.495 280.882 142.291 281.36 142.288H301.79C302.27 142.288 302.73 142.491 303.07 142.851C303.409 143.211 303.6 143.699 303.6 144.208C303.597 144.716 303.406 145.202 303.066 145.559C302.727 145.917 302.268 146.118 301.79 146.118Z" fill="black"/>
<path d="M342.66 146.118H322.23C321.752 146.118 321.293 145.917 320.954 145.559C320.614 145.202 320.423 144.716 320.42 144.208C320.42 143.699 320.611 143.211 320.95 142.851C321.29 142.491 321.75 142.288 322.23 142.288H342.66C343.138 142.291 343.596 142.495 343.933 142.855C344.271 143.214 344.46 143.701 344.46 144.208C344.457 144.714 344.267 145.198 343.93 145.556C343.593 145.913 343.137 146.115 342.66 146.118Z" fill="black"/>
<path d="M383.52 146.118H363.09C362.854 146.118 362.62 146.069 362.401 145.973C362.183 145.877 361.984 145.736 361.817 145.559C361.65 145.381 361.517 145.171 361.427 144.939C361.337 144.708 361.29 144.459 361.29 144.208C361.289 143.957 361.334 143.707 361.424 143.475C361.514 143.242 361.646 143.03 361.814 142.851C361.981 142.673 362.18 142.531 362.399 142.435C362.618 142.338 362.853 142.288 363.09 142.288H383.52C383.998 142.291 384.456 142.495 384.793 142.855C385.131 143.214 385.32 143.701 385.32 144.208C385.317 144.714 385.127 145.198 384.79 145.556C384.453 145.913 383.997 146.115 383.52 146.118Z" fill="black"/>
</g>
<path d="M136.37 237.441H167.24" stroke="#263238" stroke-width="3" stroke-linecap="round" stroke-linejoin="round"/>
<path d="M166.69 242.544H170.06" stroke="#263238" stroke-linecap="round" stroke-linejoin="round"/>
<path d="M147.36 242.544H164.65" stroke="#263238" stroke-linecap="round" stroke-linejoin="round"/>
<path d="M134.01 242.544H145.53" stroke="#263238" stroke-linecap="round" stroke-linejoin="round"/>
<path d="M155.9 247.646H170.06" stroke="#263238" stroke-linecap="round" stroke-linejoin="round"/>
<path d="M148.17 247.646H153.67" stroke="#263238" stroke-linecap="round" stroke-linejoin="round"/>
<path d="M134.01 247.646H145.73" stroke="#263238" stroke-linecap="round" stroke-linejoin="round"/>
<path d="M141.66 252.738H170.06" stroke="#263238" stroke-linecap="round" stroke-linejoin="round"/>
<path d="M134.01 252.738H139.02" stroke="#263238" stroke-linecap="round" stroke-linejoin="round"/>
<path d="M163.03 257.84H170.06" stroke="#263238" stroke-linecap="round" stroke-linejoin="round"/>
<path d="M149.6 257.84H160.58" stroke="#263238" stroke-linecap="round" stroke-linejoin="round"/>
<path d="M134.01 257.84H147.36" stroke="#263238" stroke-linecap="round" stroke-linejoin="round"/>
<path d="M145.73 262.943H170.06" stroke="#263238" stroke-linecap="round" stroke-linejoin="round"/>
<path d="M134.01 262.943H143.49" stroke="#263238" stroke-linecap="round" stroke-linejoin="round"/>
<path d="M206.77 237.441H237.64" stroke="#263238" stroke-width="3" stroke-linecap="round" stroke-linejoin="round"/>
<path d="M237.09 242.544H240.46" stroke="#263238" stroke-linecap="round" stroke-linejoin="round"/>
<path d="M217.76 242.544H235.05" stroke="#263238" stroke-linecap="round" stroke-linejoin="round"/>
<path d="M204.41 242.544H215.93" stroke="#263238" stroke-linecap="round" stroke-linejoin="round"/>
<path d="M226.3 247.646H240.46" stroke="#263238" stroke-linecap="round" stroke-linejoin="round"/>
<path d="M218.57 247.646H224.07" stroke="#263238" stroke-linecap="round" stroke-linejoin="round"/>
<path d="M204.41 247.646H216.13" stroke="#263238" stroke-linecap="round" stroke-linejoin="round"/>
<path d="M212.06 252.738H240.46" stroke="#263238" stroke-linecap="round" stroke-linejoin="round"/>
<path d="M204.41 252.738H209.42" stroke="#263238" stroke-linecap="round" stroke-linejoin="round"/>
<path d="M233.43 257.84H240.46" stroke="#263238" stroke-linecap="round" stroke-linejoin="round"/>
<path d="M220 257.84H230.98" stroke="#263238" stroke-linecap="round" stroke-linejoin="round"/>
<path d="M204.41 257.84H217.76" stroke="#263238" stroke-linecap="round" stroke-linejoin="round"/>
<path d="M216.13 262.943H240.46" stroke="#263238" stroke-linecap="round" stroke-linejoin="round"/>
<path d="M204.41 262.943H213.89" stroke="#263238" stroke-linecap="round" stroke-linejoin="round"/>
<path d="M277.17 237.441H308.04" stroke="#263238" stroke-width="3" stroke-linecap="round" stroke-linejoin="round"/>
<path d="M307.49 242.544H310.86" stroke="#263238" stroke-linecap="round" stroke-linejoin="round"/>
<path d="M288.16 242.544H305.45" stroke="#263238" stroke-linecap="round" stroke-linejoin="round"/>
<path d="M274.81 242.544H286.33" stroke="#263238" stroke-linecap="round" stroke-linejoin="round"/>
<path d="M296.7 247.646H310.86" stroke="#263238" stroke-linecap="round" stroke-linejoin="round"/>
<path d="M288.97 247.646H294.47" stroke="#263238" stroke-linecap="round" stroke-linejoin="round"/>
<path d="M274.81 247.646H286.53" stroke="#263238" stroke-linecap="round" stroke-linejoin="round"/>
<path d="M282.46 252.738H310.86" stroke="#263238" stroke-linecap="round" stroke-linejoin="round"/>
<path d="M274.81 252.738H279.82" stroke="#263238" stroke-linecap="round" stroke-linejoin="round"/>
<path d="M303.83 257.84H310.86" stroke="#263238" stroke-linecap="round" stroke-linejoin="round"/>
<path d="M290.4 257.84H301.38" stroke="#263238" stroke-linecap="round" stroke-linejoin="round"/>
<path d="M274.81 257.84H288.16" stroke="#263238" stroke-linecap="round" stroke-linejoin="round"/>
<path d="M286.53 262.943H310.86" stroke="#263238" stroke-linecap="round" stroke-linejoin="round"/>
<path d="M274.81 262.943H284.29" stroke="#263238" stroke-linecap="round" stroke-linejoin="round"/>
<path d="M347.57 237.441H378.44" stroke="#263238" stroke-width="3" stroke-linecap="round" stroke-linejoin="round"/>
<path d="M377.89 242.544H381.26" stroke="#263238" stroke-linecap="round" stroke-linejoin="round"/>
<path d="M358.56 242.544H375.85" stroke="#263238" stroke-linecap="round" stroke-linejoin="round"/>
<path d="M345.21 242.544H356.73" stroke="#263238" stroke-linecap="round" stroke-linejoin="round"/>
<path d="M367.1 247.646H381.26" stroke="#263238" stroke-linecap="round" stroke-linejoin="round"/>
<path d="M359.37 247.646H364.87" stroke="#263238" stroke-linecap="round" stroke-linejoin="round"/>
<path d="M345.21 247.646H356.93" stroke="#263238" stroke-linecap="round" stroke-linejoin="round"/>
<path d="M352.86 252.738H381.26" stroke="#263238" stroke-linecap="round" stroke-linejoin="round"/>
<path d="M345.21 252.738H350.22" stroke="#263238" stroke-linecap="round" stroke-linejoin="round"/>
<path d="M374.23 257.84H381.26" stroke="#263238" stroke-linecap="round" stroke-linejoin="round"/>
<path d="M360.8 257.84H371.78" stroke="#263238" stroke-linecap="round" stroke-linejoin="round"/>
<path d="M345.21 257.84H358.56" stroke="#263238" stroke-linecap="round" stroke-linejoin="round"/>
<path d="M356.93 262.943H381.26" stroke="#263238" stroke-linecap="round" stroke-linejoin="round"/>
<path d="M345.21 262.943H354.69" stroke="#263238" stroke-linecap="round" stroke-linejoin="round"/>
<path d="M390.77 221.01H118.77V161.489H390.77V221.01Z" fill="#27B74E" fill-opacity="0.46"/>
<path d="M321.94 221.01H187.65V161.489H321.94V221.01Z" fill="#27B74E" fill-opacity="0.46"/>
<path d="M294.5 178.737H303.65" stroke="#263238" stroke-linecap="round" stroke-linejoin="round"/>
<path d="M242.12 178.737H288.99" stroke="#263238" stroke-linecap="round" stroke-linejoin="round"/>
<path d="M205.94 178.737H237.15" stroke="#263238" stroke-linecap="round" stroke-linejoin="round"/>
<path d="M265.28 183.839H303.65" stroke="#263238" stroke-linecap="round" stroke-linejoin="round"/>
<path d="M244.32 183.839H259.21" stroke="#263238" stroke-linecap="round" stroke-linejoin="round"/>
<path d="M205.94 183.839H237.71" stroke="#263238" stroke-linecap="round" stroke-linejoin="round"/>
<path d="M226.68 188.942H303.65" stroke="#263238" stroke-linecap="round" stroke-linejoin="round"/>
<path d="M205.94 188.942H219.51" stroke="#263238" stroke-linecap="round" stroke-linejoin="round"/>
<path d="M284.58 194.044H303.65" stroke="#263238" stroke-linecap="round" stroke-linejoin="round"/>
<path d="M248.18 194.044H277.96" stroke="#263238" stroke-linecap="round" stroke-linejoin="round"/>
<path d="M205.94 194.044H242.12" stroke="#263238" stroke-linecap="round" stroke-linejoin="round"/>
<path d="M237.71 199.136H303.65" stroke="#263238" stroke-linecap="round" stroke-linejoin="round"/>
<path d="M205.94 199.136H231.64" stroke="#263238" stroke-linecap="round" stroke-linejoin="round"/>
<path d="M390.77 348.241H118.77V288.72H390.77V348.241Z" fill="#27B74E" fill-opacity="0.46"/>
</g>
<mask id="mask1_106_2" style="mask-type:luminance" maskUnits="userSpaceOnUse" x="332" y="274" width="61" height="85">
<path d="M392.87 274.647H332.48V358.704H392.87V274.647Z" fill="white"/>
</mask>
<g mask="url(#mask1_106_2)">
<path d="M358.58 321.46C358.58 321.46 342.65 328.249 340.15 329.087C337.65 329.925 337.5 331.071 337.5 334.709C337.5 338.348 337.97 354.758 337.97 356.084C337.97 357.41 337.81 359.892 337.81 359.892H390C390 359.892 386.56 345.041 384.53 338.029C382.5 331.018 383.44 330.402 379.85 328.09C376.26 325.777 366.85 322.457 364.85 321.958C362.776 321.613 360.679 321.446 358.58 321.46Z" fill="#263238" stroke="#263238" stroke-linecap="round" stroke-linejoin="round"/>
<path d="M359.36 319.635C359.36 319.635 355.61 319.306 354.05 322.627C352.49 325.947 348.74 333.68 348.74 333.68L353.27 336.661L348 339.514C348.88 343.607 349.975 347.644 351.28 351.607C352.188 354.208 353.229 356.755 354.4 359.235C354.4 359.235 362 350.122 365 347.301C366.978 345.293 368.615 342.939 369.84 340.342L365.94 336.534L372.66 335.706C372.66 335.706 370.94 326.435 368.75 322.627C366.56 318.818 359.36 319.635 359.36 319.635Z" fill="#263238" stroke="#263238" stroke-linecap="round" stroke-linejoin="round"/>
<path d="M351.69 351.714C351.97 352.541 352.27 353.326 352.56 354.015" stroke="white" stroke-width="0.5" stroke-linecap="round" stroke-linejoin="round"/>
<path d="M352.26 326.753L348.74 333.68L353.27 336.661L348.42 339.578C348.42 339.578 349.55 344.808 350.97 349.497" stroke="white" stroke-width="0.5" stroke-linecap="round" stroke-linejoin="round"/>
<path d="M370 323.613L372.63 335.706L365.91 336.534L369.81 340.342C369.81 340.342 362.31 349.666 359.2 353.432" stroke="white" stroke-width="0.5" stroke-linecap="round" stroke-linejoin="round"/>
<path d="M379.82 342.166L377.01 360.56" stroke="white" stroke-width="0.5" stroke-linecap="round" stroke-linejoin="round"/>
<path d="M341.25 338.857C341.25 338.857 340.94 349.953 341.09 353.432C341.214 355.638 341.635 357.813 342.34 359.892" stroke="white" stroke-width="0.5" stroke-linecap="round" stroke-linejoin="round"/>
<path d="M370.14 346.643L372.79 342.835L374.98 346.643H370.14Z" fill="white" stroke="#263238" stroke-miterlimit="10"/>
<path d="M373.26 310.194C373.26 310.194 375.91 309.865 376.54 314.013C377.17 318.161 375.29 323.454 369.04 323.454C362.79 323.454 363.27 318.479 363.42 314.84C363.57 311.202 373.26 310.194 373.26 310.194Z" fill="#263238" stroke="#263238" stroke-miterlimit="10"/>
<path d="M357.8 316.994C357.8 316.994 357.64 321.789 357.33 327.262C357.02 332.736 354.52 340.183 354.52 346.473C354.499 349.959 354.656 353.444 354.99 356.911C354.99 356.911 360.14 346.303 362.48 340.183C364.82 334.062 367.48 316.326 367.48 316.326L357.8 316.994Z" fill="white" stroke="#263238" stroke-miterlimit="10"/>
<path d="M373.1 306.1C374.263 303.684 374.905 301.024 374.98 298.313C374.98 294.176 374.2 288.544 369.67 286.051C365.14 283.558 356.39 285.223 354.21 290.029C352.738 293.1 352.049 296.527 352.21 299.968C352.368 301.829 352.733 303.663 353.3 305.431C353.3 305.431 353.93 302.249 358.14 300.637C362.35 299.024 366.89 297.316 369.07 298.515C371.25 299.714 373.1 306.1 373.1 306.1Z" fill="#263238" stroke="#263238" stroke-linecap="round" stroke-linejoin="round"/>
<path d="M353.43 304.402C353.43 304.402 351.55 301.421 350.77 303.575C349.99 305.728 351.09 308.879 352.33 309.537C353.57 310.194 354.21 309.865 354.21 309.865L353.43 304.402Z" fill="white" stroke="#263238" stroke-linecap="round" stroke-linejoin="round"/>
<path d="M373.1 304.901C373.1 304.901 375.29 302.578 375.29 304.731C375.18 306.73 374.48 308.641 373.29 310.194C372.35 311.52 371.88 310.862 371.88 310.862L373.1 304.901Z" fill="white" stroke="#263238" stroke-linecap="round" stroke-linejoin="round"/>
<path d="M369.39 295.364L370.94 290.729C371.001 290.547 370.992 290.347 370.914 290.173C370.836 289.999 370.696 289.865 370.525 289.801C370.354 289.736 370.166 289.746 370.002 289.828C369.837 289.911 369.711 290.059 369.65 290.241L368.35 294.113C366.982 293.77 365.563 293.726 364.179 293.985C362.794 294.244 361.475 294.8 360.3 295.619C356.24 298.441 352.96 300.923 352.96 300.923C352.96 300.923 353.12 310.364 354.83 313.843C356.54 317.323 359.52 321.46 362.02 321.46C364.52 321.46 368.89 315.668 370.61 313.843C372.33 312.019 373.42 304.901 373.42 302.578C373.42 300.912 370.84 297.284 369.39 295.364Z" fill="white" stroke="#263238" stroke-miterlimit="10"/>
<path d="M363.24 337.923C360.703 338.167 358.147 337.804 355.76 336.862C355.045 340.039 354.629 343.283 354.52 346.547C354.499 350.033 354.656 353.518 354.99 356.986C354.99 356.986 360.14 346.378 362.48 340.257C362.73 339.536 363 338.74 363.24 337.923Z" fill="#92E3A9" stroke="#263238" stroke-miterlimit="10"/>
</g>
<mask id="mask2_106_2" style="mask-type:luminance" maskUnits="userSpaceOnUse" x="261" y="274" width="62" height="85">
<path d="M322.09 274.647H261.7V358.704H322.09V274.647Z" fill="white"/>
</mask>
<g mask="url(#mask2_106_2)">
<path d="M289.43 312.666C285.447 313.145 281.491 313.854 277.58 314.787C273.01 316.039 270.81 316.58 270.81 318.914C270.81 321.248 270.3 331.304 268.81 335.802C267.32 340.299 265.59 346.76 265.59 349.093C265.59 351.427 268.81 361.303 268.81 361.303H274.73C274.73 361.303 272.53 349.804 272.53 348.733C272.53 347.661 275.58 338.125 275.58 338.125L275.75 361.653H306.75L306.42 339.196C306.42 339.196 309.12 348.361 309.12 349.974C309.12 351.586 308.12 362.194 308.12 362.194H314C314 362.194 316.88 350.525 316.71 346.388C316.54 342.251 313.71 329.14 313.33 325.173C312.95 321.205 315.19 319.062 311.13 316.368C307.07 313.674 297.75 312.061 295.72 311.881C293.604 311.925 291.498 312.188 289.43 312.666Z" fill="#92E3A9" stroke="#263238" stroke-miterlimit="10"/>
<path d="M275.55 338.178L276.06 329.193L274.19 322.372" stroke="#263238" stroke-linecap="round" stroke-linejoin="round"/>
<path d="M306.37 327.761V339.249" stroke="#263238" stroke-linecap="round" stroke-linejoin="round"/>
<path d="M306.53 330.996L309.24 326.679" stroke="#263238" stroke-linecap="round" stroke-linejoin="round"/>
<path d="M292.31 324.886L291.3 361.345" stroke="#263238" stroke-linecap="round" stroke-linejoin="round"/>
<path d="M291.8 308.359C290.293 308.447 288.86 309.079 287.74 310.152C285.88 311.955 285.2 318.956 285.2 318.956C285.2 318.956 291.13 317.163 292.14 316.835C293.15 316.506 302.14 318.627 302.14 318.627C302.14 318.627 301.3 312.348 298.93 309.653C296.56 306.959 291.8 308.359 291.8 308.359Z" fill="#263238" stroke="#263238" stroke-linecap="round" stroke-linejoin="round"/>
<path d="M289.43 302.609C289.43 302.609 290.79 304.731 290.79 311.096C290.79 317.46 291.46 324.027 292.31 324.886C293.16 325.745 296.71 316.4 296.71 312.157C296.778 309.351 297.415 306.594 298.58 304.073C298.58 304.073 294.34 301.018 292.14 300.658C291.539 300.558 290.925 300.705 290.422 301.067C289.919 301.429 289.565 301.98 289.43 302.609Z" fill="white" stroke="#263238" stroke-linecap="round" stroke-linejoin="round"/>
<path d="M291.06 318.097C291.33 321.587 291.79 324.334 292.31 324.886C292.83 325.438 294.46 321.937 295.58 318.182C294.078 318.407 292.553 318.378 291.06 318.097Z" fill="#263238" stroke="#263238" stroke-linecap="round" stroke-linejoin="round"/>
<path d="M299.76 285.372C299.76 285.372 300.76 285.732 302.64 283.929C304.52 282.126 303.64 278.72 302.81 279.442C302.28 279.901 301.821 280.445 301.45 281.054C301.122 280.003 300.517 279.073 299.708 278.374C298.898 277.675 297.917 277.236 296.88 277.108C293.33 276.747 289.09 281.956 289.09 281.956C289.09 281.956 281.31 288.066 282.15 292.914C282.99 297.762 287.4 302.068 289.43 302.609C291.46 303.15 295.19 299.204 294.51 295.789C293.83 292.373 293.33 287.302 294.51 286.804C296.233 286.222 297.986 285.744 299.76 285.372Z" fill="#263238" stroke="#263238" stroke-linecap="round" stroke-linejoin="round"/>
<path d="M289.09 299.735C289.09 299.735 286.22 297.613 285.54 299.204C284.86 300.796 286.39 303.692 288.25 304.583C290.11 305.474 291.8 302.61 291.8 302.61C291.8 302.61 297.73 307.638 301.8 307.818C305.87 307.998 306.04 304.583 305.36 298.122C304.68 291.662 302.65 286.623 301.13 284.831C299.61 283.038 293.68 284.65 291.81 286.263C289.94 287.875 288.81 289.318 290.63 289.679C292.45 290.039 294.18 290.739 292.49 292.734C290.8 294.728 289.95 293.985 290.49 295.428C291.03 296.871 293.2 298.303 291.17 299.024L289.09 299.735Z" fill="white" stroke="#263238" stroke-linecap="round" stroke-linejoin="round"/>
</g>
<mask id="mask3_106_2" style="mask-type:luminance" maskUnits="userSpaceOnUse" x="182" y="274" width="61" height="85">
<path d="M242.85 274.244H182.46V358.715H242.85V274.244Z" fill="white"/>
</mask>
<g mask="url(#mask3_106_2)">
<path d="M214.68 309.282C214.68 309.282 193.34 311.976 192.68 313.949C192.02 315.922 184.22 335.165 185.4 336.937C186.58 338.708 188.96 339.058 190.82 339.058C192.137 338.933 193.384 338.369 194.38 337.446L188.96 361.844H228.24L229.43 344.776C229.43 344.776 234 346.897 237.05 346.579C240.1 346.261 239.42 343.704 238.74 338.857C238.06 334.009 237.74 321.608 236.54 319.275C235.34 316.941 220.96 310.47 220.96 310.47L214.68 309.282Z" fill="#263238" stroke="#263238" stroke-linecap="round" stroke-linejoin="round"/>
<path d="M229.75 338.538V327.4L230.59 325.247" stroke="white" stroke-linecap="round" stroke-linejoin="round"/>
<path d="M195.54 329.193L197.24 321.651L196.9 320.038" stroke="white" stroke-linecap="round" stroke-linejoin="round"/>
<path d="M200 362.608C200 362.608 203.21 347.873 204.74 338.719C206.27 329.564 212.64 309.282 212.64 309.282L222.47 312.157C222.47 312.157 215.86 332.63 214.17 341.434C212.48 350.239 211.06 362.714 211.06 362.714L200 362.608Z" fill="#92E3A9" stroke="#263238" stroke-miterlimit="10"/>
<path d="M214 307.16C214 307.16 211.12 307.16 210.1 309.282C209.08 311.403 207.73 319.699 207.73 319.699C207.73 319.699 213.83 316.824 214.34 316.824C214.85 316.824 217.22 317.004 218.4 318.436C219.58 319.869 222.13 323.284 222.13 323.284C222.13 323.284 226.02 316.644 225.01 312.337C224.664 310.917 223.904 309.65 222.84 308.715C221.775 307.78 220.459 307.224 219.08 307.128L214 307.16Z" fill="#92E3A9" stroke="#263238" stroke-miterlimit="10"/>
<path d="M213 302.429C213 302.429 212.66 315.01 213 318.596C213.34 322.181 213.85 323.083 213.85 323.083C213.85 323.083 216.73 318.055 217.57 316.262C218.41 314.469 220.96 312.485 222.15 310.873C223.34 309.261 224.15 303.151 224.15 303.151C224.15 303.151 219.75 306.747 217.38 305.845C215.703 305.058 214.208 303.892 213 302.429Z" fill="white" stroke="#263238" stroke-linecap="round" stroke-linejoin="round"/>
<path d="M220 279.696C217.12 280.142 214.31 281.669 213.5 284.65C212.82 287.164 212.5 295.428 212.32 299.554C212.14 303.681 214.18 308.9 215.87 309.441C217.281 309.972 218.799 310.096 220.27 309.802C221.12 309.441 225.02 303.872 226.03 302.79C227.04 301.708 230.09 291.651 230.09 288.066C230.164 286.297 229.693 284.551 228.748 283.092C227.802 281.634 226.433 280.542 224.85 279.983C223.27 279.528 221.618 279.43 220 279.696Z" fill="white" stroke="#263238" stroke-linecap="round" stroke-linejoin="round"/>
<path d="M228.39 296.552C228.39 296.552 231.1 294.028 230.39 297.263C230.172 298.23 229.756 299.134 229.172 299.911C228.588 300.688 227.85 301.32 227.01 301.761L228.39 296.552Z" fill="white" stroke="#263238" stroke-linecap="round" stroke-linejoin="round"/>
<path d="M212.64 293.094C212.64 293.094 210.64 291.121 210.64 293.816C210.717 295.58 211.312 297.274 212.34 298.663L212.64 293.094Z" fill="white" stroke="#263238" stroke-linecap="round" stroke-linejoin="round"/>
<path d="M228.39 296.552C229.269 293.805 229.836 290.956 230.08 288.066C230.155 286.297 229.683 284.551 228.738 283.092C227.792 281.634 226.424 280.542 224.84 279.983C223.26 279.528 221.608 279.43 219.99 279.696C217.11 280.142 214.3 281.669 213.49 284.65C212.969 287.623 212.665 290.634 212.58 293.656C213.44 292.946 215.23 291.206 214.85 289.137C214.34 286.443 213.32 285.191 215.18 283.929C217.04 282.667 219.25 284.47 222.3 285.552C225.35 286.634 228.39 285.191 229.24 286.082C230.09 286.973 226.53 290.76 227.04 292.193C227.55 293.625 228.73 295.248 228.39 296.51V296.552Z" fill="#263238" stroke="#263238" stroke-linecap="round" stroke-linejoin="round"/>
<path d="M204 330.996C204 330.996 201.46 327.22 199.77 327.039C198.08 326.859 194.01 330.996 194.01 330.996H204Z" fill="white" stroke="#263238" stroke-linecap="round" stroke-linejoin="round"/>
<path d="M220.09 331.346H222.47L222.97 336.385L220.43 335.664L220.09 331.346Z" fill="white" stroke="#263238" stroke-linecap="round" stroke-linejoin="round"/>
<path d="M222.47 331.346L226.7 333.33L227.71 338.899L222.97 336.385L222.47 331.346Z" fill="white" stroke="#263238" stroke-linecap="round" stroke-linejoin="round"/>
<path d="M236 341.105L211.79 331.049C210.394 331.777 209.085 332.678 207.89 333.733C207.184 334.486 206.662 335.411 206.37 336.427C206.37 336.427 217.88 345.232 223.47 347.926C229.06 350.621 237.19 351.522 238.54 350.048C239.89 348.573 239.54 343.047 238.71 342.145C238.261 341.654 237.75 341.233 237.19 340.893" fill="#263238"/>
<path d="M236 341.105L211.79 331.049C210.394 331.777 209.085 332.678 207.89 333.733C207.184 334.486 206.662 335.411 206.37 336.427C206.37 336.427 217.88 345.232 223.47 347.926C229.06 350.621 237.19 351.522 238.54 350.048C239.89 348.573 239.54 343.047 238.71 342.145C238.261 341.654 237.75 341.233 237.19 340.893" stroke="#263238" stroke-linecap="round" stroke-linejoin="round"/>
<path d="M220.09 330.498L220.43 335.706C220.43 335.706 202.65 340.013 196.05 341.275C189.45 342.538 185.89 341.625 184.88 338.401C183.87 335.176 187.25 331.208 188.77 330.317C190.29 329.426 220.09 330.498 220.09 330.498Z" fill="#263238" stroke="#263238" stroke-linecap="round" stroke-linejoin="round"/>
</g>
<mask id="mask4_106_2" style="mask-type:luminance" maskUnits="userSpaceOnUse" x="121" y="274" width="55" height="85">
<path d="M175.15 274.647H121.68V358.704H175.15V274.647Z" fill="white"/>
</mask>
<g mask="url(#mask4_106_2)">
<path d="M154.69 318.182C154.69 318.182 161.47 319.975 164.18 320.876C166.89 321.778 167.73 322.849 167.73 325.003C167.73 327.156 166.21 336.671 166.21 338.114V347.82C166.21 350.515 168.75 360.391 168.75 360.391H135.75C135.75 360.391 132.03 345.306 129.49 337.053C126.95 328.8 126.61 325.915 129.15 324.653C135.188 322.306 141.348 320.329 147.6 318.733C149.948 318.374 152.317 318.19 154.69 318.182Z" fill="#92E3A9" stroke="#263238" stroke-miterlimit="10"/>
<path d="M164.52 330.031C164.52 330.031 166.52 339.917 165.87 343.503C165.22 347.088 160.62 360.751 160.62 360.751" stroke="#263238" stroke-linecap="round" stroke-linejoin="round"/>
<path d="M129.13 324.642C129.13 324.642 126.13 325.183 126.93 329.32C127.73 333.457 123.88 360.2 123.88 360.2H131.33C131.33 360.2 136.41 346.006 137.25 342.601C138.09 339.196 138.78 336.491 137.25 333.616" fill="#92E3A9"/>
<path d="M129.13 324.642C129.13 324.642 126.13 325.183 126.93 329.32C127.73 333.457 123.88 360.2 123.88 360.2H131.33C131.33 360.2 136.41 346.006 137.25 342.601C138.09 339.196 138.78 336.491 137.25 333.616" stroke="#263238" stroke-miterlimit="10"/>
<path d="M160.68 300.689L161.79 337.276H151.78V303.84L160.68 300.689Z" fill="#263238" stroke="#263238" stroke-linecap="round" stroke-linejoin="round"/>
<path d="M147.75 326.986C147.75 326.986 150.63 340.777 151.82 344.946C153.01 349.115 153.17 358.736 152.82 360.03C152.47 361.324 157.05 360.03 157.05 360.03C157.05 360.03 158.24 350.483 158.92 344.946C159.6 339.408 157.56 328.96 157.56 328.96L155.36 319.794L147.06 321.417L147.75 326.986Z" fill="white" stroke="#263238" stroke-linecap="round" stroke-linejoin="round"/>
<path d="M155 311.891C154.528 314.751 154.586 317.68 155.17 320.516C156.17 324.472 158.9 331.654 156.53 333.627C154.16 335.6 150.94 334.529 149.25 330.933C147.56 327.336 146.03 318.362 146.03 311C146.03 303.638 146.71 302.376 149.08 302.376C151.45 302.376 155 311.891 155 311.891Z" fill="white" stroke="#263238" stroke-linecap="round" stroke-linejoin="round"/>
<path d="M150.12 308.486C148.597 309.891 146.806 310.929 144.87 311.531C142.33 312.072 140.98 304.89 140.64 297.74C140.3 290.591 142 286.602 145.55 284.809C149.1 283.017 157.74 283.908 161.13 285.34C164.52 286.772 168.58 289.116 168.58 292.882C168.58 296.648 164 299.735 162.65 300.583C161.3 301.432 158.08 302.705 156.05 304.89C154.296 306.462 152.286 307.68 150.12 308.486Z" fill="#263238" stroke="#263238" stroke-linecap="round" stroke-linejoin="round"/>
<path d="M150.12 308.486C150.12 308.486 152.12 313.875 155.88 314.045C159.64 314.215 163.88 305.071 164.01 301.114C164.14 297.157 160.28 290.336 160.28 290.336C160.28 290.336 153.68 306.322 150.12 308.486Z" fill="white" stroke="#263238" stroke-linecap="round" stroke-linejoin="round"/>
<path d="M149.11 300.403L149.44 339.196H138.1L140.64 294.113" fill="#263238"/>
<path d="M149.11 300.403L149.44 339.196H138.1L140.64 294.113" stroke="#263238" stroke-linecap="round" stroke-linejoin="round"/>
</g>
</g>
<defs>
<filter id="filter0_b_106_2" x="-10" y="-10" width="520" height="499" filterUnits="userSpaceOnUse" color-interpolation-filters="sRGB">
<feFlood flood-opacity="0" result="BackgroundImageFix"/>
<feGaussianBlur in="BackgroundImageFix" stdDeviation="5"/>
<feComposite in2="SourceAlpha" operator="in" result="effect1_backgroundBlur_106_2"/>
<feBlend mode="normal" in="SourceGraphic" in2="effect1_backgroundBlur_106_2" result="shape"/>
</filter>
<filter id="filter1_b_106_2" x="46.621" y="52.2795" width="395.905" height="325.584" filterUnits="userSpaceOnUse" color-interpolation-filters="sRGB">
<feFlood flood-opacity="0" result="BackgroundImageFix"/>
<feGaussianBlur in="BackgroundImageFix" stdDeviation="5"/>
<feComposite in2="SourceAlpha" operator="in" result="effect1_backgroundBlur_106_2"/>
<feBlend mode="normal" in="SourceGraphic" in2="effect1_backgroundBlur_106_2" result="shape"/>
</filter>
<filter id="filter2_b_106_2" x="96.5699" y="95.0653" width="316.2" height="268.936" filterUnits="userSpaceOnUse" color-interpolation-filters="sRGB">
<feFlood flood-opacity="0" result="BackgroundImageFix"/>
<feGaussianBlur in="BackgroundImageFix" stdDeviation="5"/>
<feComposite in2="SourceAlpha" operator="in" result="effect1_backgroundBlur_106_2"/>
<feBlend mode="normal" in="SourceGraphic" in2="effect1_backgroundBlur_106_2" result="shape"/>
</filter>
</defs>
</svg>
