<svg width="27" height="27" viewBox="0 0 27 27" fill="none" xmlns="http://www.w3.org/2000/svg">
<g clip-path="url(#clip0_50_2)">
<path d="M0 8.43748C0.000412014 10.3903 0.677893 12.2825 1.91701 13.7918C3.15614 15.3011 4.88024 16.334 6.79556 16.7147C6.90465 15.5056 7.21492 14.3233 7.71356 13.2165C6.23531 12.717 5.28525 11.583 5.0625 9.9731H4.21875V9.25423H5.00513V8.52186C5.00513 8.44423 5.00513 8.36492 5.01188 8.29404H4.21875V7.57348H5.08106C5.46075 5.46748 7.10944 4.21873 9.58669 4.21873C10.1199 4.21873 10.5823 4.27104 10.9688 4.36217V5.59911C10.5174 5.49869 10.0557 5.45224 9.59344 5.46073C8.04262 5.46073 6.99806 6.2471 6.66731 7.57348H9.90225V8.29404H6.561C6.55594 8.37167 6.55594 8.45773 6.55594 8.5421V9.25423H9.90225V9.97479H6.63188C6.831 10.9907 7.42162 11.7129 8.32781 12.0487C9.21635 10.5772 10.4383 9.33504 11.8951 8.42254C13.352 7.51004 15.0029 6.95273 16.7147 6.79554C16.3008 4.74609 15.1411 2.92318 13.4601 1.67991C11.779 0.436637 9.69643 -0.1385 7.61562 0.065904C5.53482 0.270308 3.60393 1.2397 2.19698 2.78632C0.790025 4.33293 0.00714989 6.34667 0 8.43748H0ZM27 17.7187C27 20.1803 26.0222 22.541 24.2816 24.2816C22.541 26.0221 20.1803 27 17.7188 27C15.2572 27 12.8965 26.0221 11.1559 24.2816C9.41534 22.541 8.4375 20.1803 8.4375 17.7187C8.4375 15.2572 9.41534 12.8965 11.1559 11.1559C12.8965 9.41532 15.2572 8.43748 17.7188 8.43748C20.1803 8.43748 22.541 9.41532 24.2816 11.1559C26.0222 12.8965 27 15.2572 27 17.7187V17.7187ZM13.9219 19.9496C14.0383 21.3587 15.1807 22.4555 17.2361 22.5855V23.625H18.1474V22.5787C20.2719 22.4336 21.5156 21.33 21.5156 19.7269C21.5156 18.2672 20.5656 17.5162 18.8663 17.1281L18.1474 16.9594V14.1311C19.0586 14.2324 19.6391 14.7167 19.7775 15.3883H21.3773C21.2591 14.0315 20.0627 12.9701 18.1474 12.8537V11.8125H17.2361V12.8739C15.4204 13.0477 14.1851 14.1092 14.1851 15.611C14.1851 16.9391 15.1031 17.7845 16.632 18.1305L17.2361 18.2739V21.2777C16.3012 21.1427 15.6836 20.6432 15.5436 19.9496H13.9219ZM17.2294 16.7518C16.3316 16.5493 15.8456 16.1375 15.8456 15.5165C15.8456 14.8247 16.3704 14.3032 17.2361 14.1514V16.7501H17.2277L17.2294 16.7518ZM18.279 18.5135C19.3674 18.7582 19.8703 19.1548 19.8703 19.8568C19.8703 20.6567 19.2459 21.2068 18.1491 21.308V18.4832L18.279 18.5135Z" fill="#27b74e"/>
</g>
<defs>
<clipPath id="clip0_50_2">
<rect width="27" height="27" fill="white"/>
</clipPath>
</defs>
</svg>
