<svg width="25" height="25" viewBox="0 0 25 25" fill="none" xmlns="http://www.w3.org/2000/svg">
<g clip-path="url(#clip0_50_19)">
<path fill-rule="evenodd" clip-rule="evenodd" d="M8.33332 2.08331C8.58846 2.08335 8.83472 2.17702 9.02538 2.34656C9.21604 2.5161 9.33785 2.74972 9.3677 3.0031L9.37499 3.12498V5.20831C10.1721 5.20827 10.9391 5.51282 11.519 6.05965C12.099 6.60648 12.448 7.35426 12.4948 8.14998L12.5 8.33331V14.5833C12.5 15.3804 12.1955 16.1474 11.6487 16.7273C11.1018 17.3073 10.354 17.6563 9.55832 17.7031L9.37499 17.7083V21.875C9.3747 22.1405 9.27303 22.3958 9.09077 22.5889C8.90851 22.782 8.65941 22.8981 8.39437 22.9137C8.12933 22.9293 7.86835 22.843 7.66475 22.6726C7.46115 22.5022 7.33031 22.2605 7.29895 21.9969L7.29166 21.875V17.7083C6.49456 17.7084 5.72758 17.4038 5.14763 16.857C4.56769 16.3101 4.21863 15.5624 4.17186 14.7666L4.16666 14.5833V8.33331C4.16661 7.53622 4.47116 6.76924 5.01799 6.18929C5.56483 5.60935 6.3126 5.26028 7.10832 5.21352L7.29166 5.20831V3.12498C7.29166 2.84871 7.4014 2.58376 7.59675 2.38841C7.7921 2.19306 8.05706 2.08331 8.33332 2.08331ZM17.7083 2.08331C17.9635 2.08335 18.2097 2.17702 18.4004 2.34656C18.591 2.5161 18.7128 2.74972 18.7427 3.0031L18.75 3.12498V7.29165C19.5471 7.2916 20.3141 7.59615 20.894 8.14298C21.474 8.68982 21.823 9.43759 21.8698 10.2333L21.875 10.4166V16.6666C21.875 17.4637 21.5705 18.2307 21.0237 18.8107C20.4768 19.3906 19.729 19.7397 18.9333 19.7864L18.75 19.7916V21.875C18.7497 22.1405 18.648 22.3958 18.4658 22.5889C18.2835 22.782 18.0344 22.8981 17.7694 22.9137C17.5043 22.9293 17.2433 22.843 17.0397 22.6726C16.8362 22.5022 16.7053 22.2605 16.6739 21.9969L16.6667 21.875V19.7916C15.8696 19.7917 15.1026 19.4871 14.5226 18.9403C13.9427 18.3935 13.5936 17.6457 13.5469 16.85L13.5417 16.6666V10.4166C13.5416 9.61955 13.8462 8.85257 14.393 8.27263C14.9398 7.69268 15.6876 7.34362 16.4833 7.29686L16.6667 7.29165V3.12498C16.6667 2.84871 16.7764 2.58376 16.9718 2.38841C17.1671 2.19306 17.4321 2.08331 17.7083 2.08331ZM18.75 9.37498H16.6667C16.4115 9.37501 16.1653 9.46868 15.9746 9.63823C15.7839 9.80777 15.6621 10.0414 15.6323 10.2948L15.625 10.4166V16.6666C15.625 16.9218 15.7187 17.168 15.8882 17.3587C16.0578 17.5494 16.2914 17.6712 16.5448 17.701L16.6667 17.7083H18.75C19.0051 17.7083 19.2514 17.6146 19.442 17.4451C19.6327 17.2755 19.7545 17.0419 19.7844 16.7885L19.7917 16.6666V10.4166C19.7916 10.1615 19.698 9.91525 19.5284 9.72459C19.3589 9.53393 19.1253 9.41212 18.8719 9.38227L18.75 9.37498ZM9.37499 7.29165H7.29166C7.03652 7.29168 6.79026 7.38535 6.5996 7.55489C6.40894 7.72443 6.28713 7.95805 6.25728 8.21144L6.24999 8.33331V14.5833C6.25002 14.8385 6.34369 15.0847 6.51323 15.2754C6.68278 15.466 6.9164 15.5878 7.16978 15.6177L7.29166 15.625H9.37499C9.63013 15.6249 9.87638 15.5313 10.067 15.3617C10.2577 15.1922 10.3795 14.9586 10.4094 14.7052L10.4167 14.5833V8.33331C10.4166 8.07817 10.323 7.83192 10.1534 7.64126C9.98387 7.4506 9.75025 7.32879 9.49686 7.29894L9.37499 7.29165Z" fill="#27b74e"/>
</g>
<defs>
<clipPath id="clip0_50_19">
<rect width="25" height="25" fill="white"/>
</clipPath>
</defs>
</svg>
