<svg width="25" height="25" viewBox="0 0 25 25" fill="none" xmlns="http://www.w3.org/2000/svg">
<path d="M5.55879 0.865261C5.14736 0.867214 4.73789 0.905935 4.3335 0.984206C9.55322 4.12615 13.4508 8.326 16.5269 13.1836C16.6502 10.5586 15.5957 7.85501 13.9129 5.65188C13.2246 5.91057 12.376 5.68811 11.7905 5.10257C11.2055 4.5176 10.982 3.66961 11.2396 2.98157C9.49512 1.66531 7.50391 0.855495 5.55879 0.865261ZM24.1409 1.8616L20.6772 5.65188L22.145 11.7829L19.455 12.2116L18.5074 16.1484L22.0962 18.0588L20.0821 20.7901L21.5302 22.9401L17.1952 21.5912L18.0008 19.4504L14.2563 17.7979L14.8972 13.6688L9.45894 16.507L9.25288 20.3278L3.77339 18.9774L2.14985 24.0631H24.1409V1.8616H24.1409ZM12.7518 2.86721C12.7328 2.8677 12.7139 2.86858 12.6953 2.87014C12.5174 2.88601 12.3593 2.95296 12.2467 3.06546C11.9465 3.36575 11.9661 3.98733 12.4359 4.45706C12.9057 4.92693 13.5273 4.94651 13.8275 4.64632C14.1277 4.34612 14.1081 3.72454 13.6383 3.25471C13.363 2.97947 13.036 2.8594 12.7518 2.86716V2.86721ZM9.59473 6.23015L1.23438 14.5935C1.44302 15.1758 1.7728 15.6213 2.46729 15.8448L10.8384 7.47073C10.4577 7.03665 10.0421 6.62439 9.59473 6.2302V6.23015ZM17.3477 6.79778L17.8024 10.9328L19.1421 6.79773H17.3477L17.3477 6.79778ZM10.9009 10.4583L9.9167 12.2131L14.4424 12.5732L10.9009 10.4583L10.9009 10.4583Z" fill="#0085FF"/>
</svg>
