<svg width="25" height="25" viewBox="0 0 25 25" fill="none" xmlns="http://www.w3.org/2000/svg">
<path d="M9.14751 8.125C9.35751 7.03375 9.64376 6.05375 9.98501 5.225C10.3613 4.30875 10.795 3.6075 11.245 3.14625C11.6925 2.68625 12.1163 2.5 12.5 2.5C12.8838 2.5 13.3075 2.68625 13.755 3.14625C14.205 3.60875 14.6388 4.30875 15.015 5.225C15.3563 6.05375 15.6425 7.03375 15.8525 8.125H9.14751ZM8.82876 4.75C9.09557 4.07735 9.44267 3.43939 9.86251 2.85C8.48888 3.22712 7.21139 3.89264 6.11516 4.80221C5.01892 5.71179 4.12911 6.84455 3.50501 8.125H7.87626C8.10376 6.86625 8.42751 5.7225 8.82876 4.75V4.75ZM16.1713 4.75C15.9043 4.07779 15.5572 3.44027 15.1375 2.85125C16.511 3.22823 17.7884 3.89356 18.8847 4.80291C19.9809 5.71227 20.8708 6.84478 21.495 8.125H17.1238C16.8963 6.86625 16.5725 5.7225 16.1713 4.75V4.75ZM17.3125 9.375H22.0025C22.295 10.265 22.465 11.21 22.495 12.1913C21.5745 11.5695 20.487 11.2417 19.3763 11.2513C18.7013 11.2513 18.0663 11.3637 17.4838 11.57C17.4587 10.8362 17.4016 10.1038 17.3125 9.375ZM16.2488 12.1975C16.2385 11.2536 16.173 10.3112 16.0525 9.375H8.94751C8.81455 10.4113 8.74858 11.4552 8.75001 12.5C8.75001 13.5938 8.82001 14.6425 8.94751 15.625H13.925C14.265 14.215 15.0875 12.9888 16.2488 12.1975V12.1975ZM13.7538 16.875H9.14751C9.35751 17.9663 9.64376 18.9462 9.98501 19.775C10.3613 20.6912 10.795 21.3925 11.245 21.8537C11.6925 22.3137 12.1163 22.5 12.5 22.5C12.8838 22.5 13.3075 22.3137 13.755 21.8537C14.0725 21.5287 14.3825 21.0825 14.67 20.525C14.0563 19.3575 13.75 18.1875 13.75 17.1025L13.7538 16.875V16.875ZM3.50501 16.875C4.12938 18.1554 5.01945 19.2879 6.1159 20.1973C7.21236 21.1067 8.49002 21.7719 9.86376 22.1487C9.44365 21.5602 9.09614 20.9231 8.82876 20.2513C8.42876 19.2763 8.10376 18.1337 7.87626 16.875H3.50501V16.875ZM7.68751 15.625H2.99751C2.6667 14.6164 2.49876 13.5615 2.50001 12.5C2.50001 11.4087 2.67501 10.3588 2.99751 9.375H7.68751C7.56501 10.3688 7.50001 11.4175 7.50001 12.5C7.50001 13.5825 7.56501 14.6312 7.68751 15.625ZM23.75 17.1025C23.75 14.5613 21.9188 12.5013 19.3763 12.5013C16.835 12.5013 15 14.5613 15 17.1025C15 19.0075 16.2275 21.515 19.07 23.6475C19.2513 23.785 19.5013 23.785 19.6825 23.6475C22.5275 21.515 23.75 19.0075 23.75 17.1025ZM21.25 16.875C21.25 17.3723 21.0525 17.8492 20.7008 18.2008C20.3492 18.5525 19.8723 18.75 19.375 18.75C18.8777 18.75 18.4008 18.5525 18.0492 18.2008C17.6976 17.8492 17.5 17.3723 17.5 16.875C17.5 16.3777 17.6976 15.9008 18.0492 15.5492C18.4008 15.1975 18.8777 15 19.375 15C19.8723 15 20.3492 15.1975 20.7008 15.5492C21.0525 15.9008 21.25 16.3777 21.25 16.875V16.875Z" fill="#0085FF"/>
</svg>
