<svg width="84" height="63" viewBox="0 0 84 63" fill="none" xmlns="http://www.w3.org/2000/svg">
<path d="M18.9968 24.875C18.0676 24.875 17.1759 25.0167 16.2884 25.1458C16.5759 24.1792 16.8718 23.1958 17.3468 22.3125C17.8218 21.0292 18.5634 19.9167 19.3009 18.7958C19.9176 17.5833 21.0051 16.7625 21.8051 15.725C22.6426 14.7167 23.7843 14.0458 24.6884 13.2083C25.5759 12.3333 26.7384 11.8958 27.6634 11.2792C28.6301 10.725 29.4718 10.1125 30.3718 9.82083L32.6176 8.89583L34.5926 8.075L32.5718 0L30.0843 0.599998C29.2884 0.799998 28.3176 1.03333 27.2134 1.3125C26.0843 1.52083 24.8801 2.09167 23.5384 2.6125C22.2134 3.20417 20.6801 3.60417 19.2551 4.55417C17.8218 5.4625 16.1676 6.22083 14.7093 7.4375C13.2968 8.69167 11.5926 9.77917 10.3343 11.375C8.95928 12.8667 7.60095 14.4333 6.54678 16.2167C5.32595 17.9167 4.49678 19.7833 3.62178 21.6292C2.83011 23.475 2.19261 25.3625 1.67178 27.1958C0.68428 30.8708 0.242614 34.3625 0.0717802 37.35C-0.0698864 40.3417 0.0134469 42.8292 0.188447 44.6292C0.250947 45.4792 0.367614 46.3042 0.450947 46.875L0.555113 47.575L0.663447 47.55C1.40453 51.0118 3.11055 54.193 5.58413 56.7257C8.05771 59.2585 11.1978 61.0391 14.6411 61.8618C18.0844 62.6844 21.6903 62.5154 25.0416 61.3743C28.3929 60.2332 31.3526 58.1666 33.5785 55.4137C35.8043 52.6607 37.2053 49.3338 37.6194 45.8179C38.0334 42.302 37.4436 38.7406 35.9182 35.5459C34.3927 32.3512 31.994 29.6536 28.9995 27.7652C26.005 25.8768 22.537 24.8748 18.9968 24.875ZM64.8301 24.875C63.9009 24.875 63.0093 25.0167 62.1218 25.1458C62.4093 24.1792 62.7051 23.1958 63.1801 22.3125C63.6551 21.0292 64.3968 19.9167 65.1343 18.7958C65.7509 17.5833 66.8384 16.7625 67.6384 15.725C68.4759 14.7167 69.6176 14.0458 70.5218 13.2083C71.4093 12.3333 72.5718 11.8958 73.4968 11.2792C74.4634 10.725 75.3051 10.1125 76.2051 9.82083L78.4509 8.89583L80.4259 8.075L78.4051 0L75.9176 0.599998C75.1218 0.799998 74.1509 1.03333 73.0468 1.3125C71.9176 1.52083 70.7134 2.09167 69.3718 2.6125C68.0509 3.20833 66.5134 3.60417 65.0884 4.55833C63.6551 5.46667 62.0009 6.225 60.5426 7.44167C59.1301 8.69583 57.4259 9.78333 56.1676 11.375C54.7926 12.8667 53.4343 14.4333 52.3801 16.2167C51.1593 17.9167 50.3301 19.7833 49.4551 21.6292C48.6634 23.475 48.0259 25.3625 47.5051 27.1958C46.5176 30.8708 46.0759 34.3625 45.9051 37.35C45.7634 40.3417 45.8468 42.8292 46.0218 44.6292C46.0843 45.4792 46.2009 46.3042 46.2843 46.875L46.3884 47.575L46.4968 47.55C47.2379 51.0118 48.9439 54.193 51.4175 56.7257C53.891 59.2585 57.0311 61.0391 60.4744 61.8618C63.9178 62.6844 67.5236 62.5154 70.8749 61.3743C74.2262 60.2332 77.186 58.1666 79.4118 55.4137C81.6377 52.6607 83.0386 49.3338 83.4527 45.8179C83.8667 42.302 83.2769 38.7406 81.7515 35.5459C80.2261 32.3512 77.8273 29.6536 74.8328 27.7652C71.8383 25.8768 68.3703 24.8748 64.8301 24.875Z" fill="#76C8EB" fill-opacity="0.35"/>
</svg>
